<mxfile host="app.diagrams.net" agent="Mozilla/5.0 (Windows NT 10.0; Win64; x64) AppleWebKit/537.36 (KHTML, like Gecko) Chrome/137.0.0.0 Safari/537.36 Edg/137.0.0.0" version="26.2.14" pages="3">
  <diagram id="OysrHDbxV4p5ZVJNNf0u" name="api">
    <mxGraphModel dx="1630" dy="874" grid="1" gridSize="10" guides="1" tooltips="1" connect="1" arrows="1" fold="1" page="1" pageScale="1" pageWidth="827" pageHeight="1169" math="0" shadow="0">
      <root>
        <mxCell id="0" />
        <mxCell id="1" parent="0" />
        <mxCell id="wBA0zMIpFFR9wL3W45go-1" value="" style="strokeWidth=2;html=1;shape=mxgraph.flowchart.database;whiteSpace=wrap;fillColor=#b1ddf0;strokeColor=#10739e;" parent="1" vertex="1">
          <mxGeometry x="370" y="200" width="70" height="70" as="geometry" />
        </mxCell>
        <mxCell id="wBA0zMIpFFR9wL3W45go-2" value="" style="strokeWidth=2;html=1;shape=mxgraph.flowchart.database;whiteSpace=wrap;fillColor=#b1ddf0;strokeColor=#10739e;" parent="1" vertex="1">
          <mxGeometry x="450" y="140" width="100" height="130" as="geometry" />
        </mxCell>
        <mxCell id="wBA0zMIpFFR9wL3W45go-3" value="&lt;font style=&quot;font-size: 20px;&quot;&gt;Datamart&lt;/font&gt;" style="text;html=1;align=center;verticalAlign=middle;whiteSpace=wrap;rounded=0;" parent="1" vertex="1">
          <mxGeometry x="400" y="270" width="120" height="60" as="geometry" />
        </mxCell>
        <mxCell id="wBA0zMIpFFR9wL3W45go-13" style="edgeStyle=orthogonalEdgeStyle;rounded=0;orthogonalLoop=1;jettySize=auto;html=1;" parent="1" source="wBA0zMIpFFR9wL3W45go-5" target="wBA0zMIpFFR9wL3W45go-1" edge="1">
          <mxGeometry relative="1" as="geometry" />
        </mxCell>
        <mxCell id="wBA0zMIpFFR9wL3W45go-5" value="Valores Cuota" style="shape=internalStorage;whiteSpace=wrap;html=1;backgroundOutline=1;fillColor=#f5f5f5;fontColor=#333333;strokeColor=#666666;" parent="1" vertex="1">
          <mxGeometry x="110" y="130" width="140" height="80" as="geometry" />
        </mxCell>
        <mxCell id="wBA0zMIpFFR9wL3W45go-6" value="Datos AFP" style="shape=internalStorage;whiteSpace=wrap;html=1;backgroundOutline=1;fillColor=#f5f5f5;fontColor=#333333;strokeColor=#666666;" parent="1" vertex="1">
          <mxGeometry x="110" y="230" width="140" height="80" as="geometry" />
        </mxCell>
        <mxCell id="wBA0zMIpFFR9wL3W45go-7" value="MÃ©tricas Riesgo" style="shape=internalStorage;whiteSpace=wrap;html=1;backgroundOutline=1;fillColor=#f5f5f5;fontColor=#333333;strokeColor=#666666;" parent="1" vertex="1">
          <mxGeometry x="110" y="340" width="140" height="80" as="geometry" />
        </mxCell>
        <mxCell id="wBA0zMIpFFR9wL3W45go-14" style="edgeStyle=orthogonalEdgeStyle;rounded=0;orthogonalLoop=1;jettySize=auto;html=1;entryX=0;entryY=0.5;entryDx=0;entryDy=0;entryPerimeter=0;" parent="1" source="wBA0zMIpFFR9wL3W45go-6" target="wBA0zMIpFFR9wL3W45go-1" edge="1">
          <mxGeometry relative="1" as="geometry" />
        </mxCell>
        <mxCell id="wBA0zMIpFFR9wL3W45go-15" style="edgeStyle=orthogonalEdgeStyle;rounded=0;orthogonalLoop=1;jettySize=auto;html=1;entryX=0;entryY=0.5;entryDx=0;entryDy=0;entryPerimeter=0;" parent="1" source="wBA0zMIpFFR9wL3W45go-7" target="wBA0zMIpFFR9wL3W45go-1" edge="1">
          <mxGeometry relative="1" as="geometry" />
        </mxCell>
        <mxCell id="wBA0zMIpFFR9wL3W45go-17" value="&lt;font style=&quot;font-size: 20px;&quot;&gt;API&lt;/font&gt;" style="text;html=1;align=center;verticalAlign=middle;whiteSpace=wrap;rounded=0;" parent="1" vertex="1">
          <mxGeometry x="425" y="510" width="120" height="30" as="geometry" />
        </mxCell>
        <mxCell id="wBA0zMIpFFR9wL3W45go-35" style="rounded=0;orthogonalLoop=1;jettySize=auto;html=1;strokeColor=#0000FF;dashed=1;" parent="1" source="wBA0zMIpFFR9wL3W45go-20" edge="1">
          <mxGeometry relative="1" as="geometry">
            <mxPoint x="460" y="370" as="targetPoint" />
          </mxGeometry>
        </mxCell>
        <mxCell id="wBA0zMIpFFR9wL3W45go-20" value="&lt;font style=&quot;font-size: 16px; color: rgb(0, 0, 255);&quot;&gt;Se almencenan en la API un listado de Queries al Datamart&lt;/font&gt;" style="text;html=1;align=center;verticalAlign=middle;whiteSpace=wrap;rounded=0;fillColor=#f5f5f5;fontColor=#333333;strokeColor=#666666;" parent="1" vertex="1">
          <mxGeometry x="570" y="330" width="170" height="80" as="geometry" />
        </mxCell>
        <mxCell id="wBA0zMIpFFR9wL3W45go-21" value="&lt;font style=&quot;font-size: 20px;&quot;&gt;URL: htpp : /API/Query&lt;/font&gt;" style="text;html=1;align=center;verticalAlign=middle;whiteSpace=wrap;rounded=0;fillColor=#b1ddf0;strokeColor=#10739e;" parent="1" vertex="1">
          <mxGeometry x="750" y="220" width="290" height="60" as="geometry" />
        </mxCell>
        <mxCell id="wBA0zMIpFFR9wL3W45go-24" style="edgeStyle=orthogonalEdgeStyle;rounded=0;orthogonalLoop=1;jettySize=auto;html=1;exitX=0.5;exitY=1;exitDx=0;exitDy=0;" parent="1" source="wBA0zMIpFFR9wL3W45go-20" target="wBA0zMIpFFR9wL3W45go-20" edge="1">
          <mxGeometry relative="1" as="geometry" />
        </mxCell>
        <mxCell id="wBA0zMIpFFR9wL3W45go-41" style="rounded=0;orthogonalLoop=1;jettySize=auto;html=1;strokeColor=#0000FF;dashed=1;" parent="1" source="wBA0zMIpFFR9wL3W45go-25" edge="1">
          <mxGeometry relative="1" as="geometry">
            <mxPoint x="870" y="470" as="targetPoint" />
          </mxGeometry>
        </mxCell>
        <mxCell id="wBA0zMIpFFR9wL3W45go-25" value="&lt;font color=&quot;#0000ff&quot;&gt;&lt;span style=&quot;font-size: 16px;&quot;&gt;El resultado de la API se disponibiliza en una ruta web (endpoint) en formato json&lt;/span&gt;&lt;/font&gt;" style="text;html=1;align=center;verticalAlign=middle;whiteSpace=wrap;rounded=0;fillColor=#f5f5f5;fontColor=#333333;strokeColor=#666666;" parent="1" vertex="1">
          <mxGeometry x="800" y="530" width="230" height="130" as="geometry" />
        </mxCell>
        <mxCell id="wBA0zMIpFFR9wL3W45go-28" style="edgeStyle=orthogonalEdgeStyle;rounded=0;orthogonalLoop=1;jettySize=auto;html=1;" parent="1" source="wBA0zMIpFFR9wL3W45go-26" target="wBA0zMIpFFR9wL3W45go-21" edge="1">
          <mxGeometry relative="1" as="geometry" />
        </mxCell>
        <mxCell id="wBA0zMIpFFR9wL3W45go-26" value="&lt;font style=&quot;font-size: 20px;&quot;&gt;URL: htpp : /API&lt;/font&gt;" style="text;html=1;align=center;verticalAlign=middle;whiteSpace=wrap;rounded=0;fillColor=#b1ddf0;strokeColor=#10739e;" parent="1" vertex="1">
          <mxGeometry x="400" y="440" width="170" height="60" as="geometry" />
        </mxCell>
        <mxCell id="wBA0zMIpFFR9wL3W45go-34" style="edgeStyle=orthogonalEdgeStyle;rounded=0;orthogonalLoop=1;jettySize=auto;html=1;entryX=0.346;entryY=0.059;entryDx=0;entryDy=0;entryPerimeter=0;" parent="1" source="wBA0zMIpFFR9wL3W45go-3" target="wBA0zMIpFFR9wL3W45go-26" edge="1">
          <mxGeometry relative="1" as="geometry" />
        </mxCell>
        <mxCell id="wBA0zMIpFFR9wL3W45go-37" style="edgeStyle=orthogonalEdgeStyle;rounded=0;orthogonalLoop=1;jettySize=auto;html=1;entryX=1;entryY=0.25;entryDx=0;entryDy=0;" parent="1" source="wBA0zMIpFFR9wL3W45go-36" target="wBA0zMIpFFR9wL3W45go-21" edge="1">
          <mxGeometry relative="1" as="geometry">
            <mxPoint x="1140" y="390" as="targetPoint" />
          </mxGeometry>
        </mxCell>
        <mxCell id="wBA0zMIpFFR9wL3W45go-36" value="" style="shape=image;html=1;verticalAlign=top;verticalLabelPosition=bottom;labelBackgroundColor=#ffffff;imageAspect=0;aspect=fixed;image=https://cdn4.iconfinder.com/data/icons/scripting-and-programming-languages/512/660277-Python_logo-128.png;imageBorder=default;" parent="1" vertex="1">
          <mxGeometry x="1150" y="386" width="124" height="124" as="geometry" />
        </mxCell>
        <mxCell id="wBA0zMIpFFR9wL3W45go-42" style="rounded=0;orthogonalLoop=1;jettySize=auto;html=1;strokeColor=#0000FF;dashed=1;" parent="1" source="wBA0zMIpFFR9wL3W45go-38" edge="1">
          <mxGeometry relative="1" as="geometry">
            <mxPoint x="1090" y="295" as="targetPoint" />
          </mxGeometry>
        </mxCell>
        <mxCell id="wBA0zMIpFFR9wL3W45go-38" value="&lt;font color=&quot;#0000ff&quot;&gt;&lt;span style=&quot;font-size: 16px;&quot;&gt;Un script de pyhon consulta las rutas web, descarga los archivos json y los tranforma tablas de datos (datafame)&lt;/span&gt;&lt;/font&gt;" style="text;html=1;align=center;verticalAlign=middle;whiteSpace=wrap;rounded=0;fillColor=#f5f5f5;fontColor=#333333;strokeColor=#666666;" parent="1" vertex="1">
          <mxGeometry x="1200" y="230" width="230" height="130" as="geometry" />
        </mxCell>
      </root>
    </mxGraphModel>
  </diagram>
  <diagram id="KwqESxX6EJ6myhC4-Qw1" name="LVA Esquema">
    <mxGraphModel dx="1638" dy="869" grid="1" gridSize="10" guides="1" tooltips="1" connect="1" arrows="1" fold="1" page="1" pageScale="1" pageWidth="827" pageHeight="1169" background="none" math="0" shadow="0">
      <root>
        <mxCell id="0" />
        <mxCell id="1" parent="0" />
        <mxCell id="eGC-M_-U3Qp7cmGm48lb-12" style="edgeStyle=orthogonalEdgeStyle;rounded=0;orthogonalLoop=1;jettySize=auto;html=1;entryX=0;entryY=0.5;entryDx=0;entryDy=0;strokeColor=#6D85FD;" parent="1" source="eGC-M_-U3Qp7cmGm48lb-1" target="eGC-M_-U3Qp7cmGm48lb-11" edge="1">
          <mxGeometry relative="1" as="geometry" />
        </mxCell>
        <mxCell id="eGC-M_-U3Qp7cmGm48lb-1" value="&lt;p style=&quot;margin:0px;margin-top:4px;text-align:center;&quot;&gt;&lt;b&gt;&lt;font style=&quot;font-size: 17px;&quot;&gt;modules_afp.backend.Storage&lt;/font&gt;&lt;/b&gt;&lt;/p&gt;&lt;div&gt;&lt;br&gt;&lt;/div&gt;&lt;font style=&quot;font-size: 14px;&quot;&gt;Permite descargar archivos desde un bucket de Cloud Storage.&lt;/font&gt;&lt;br&gt;&lt;br&gt;&lt;hr size=&quot;1&quot; style=&quot;border-style:solid;&quot;&gt;&lt;p style=&quot;margin:0px;margin-left:4px;&quot;&gt;&lt;font style=&quot;font-size: 15px;&quot;&gt;&lt;b&gt;&lt;u&gt;Atributos&lt;/u&gt;&lt;/b&gt;&lt;/font&gt;&lt;/p&gt;&lt;p style=&quot;margin:0px;margin-left:4px;&quot;&gt;&lt;font style=&quot;font-size: 15px;&quot;&gt;+ token_path : str&lt;br&gt;+ project : str&lt;/font&gt;&lt;/p&gt;&lt;p style=&quot;margin:0px;margin-left:4px;&quot;&gt;&lt;font style=&quot;font-size: 15px;&quot;&gt;+ bucket_name: str&lt;/font&gt;&lt;/p&gt;&lt;p style=&quot;margin:0px;margin-left:4px;&quot;&gt;&lt;font style=&quot;font-size: 15px;&quot;&gt;+ airflow: bool&lt;/font&gt;&lt;/p&gt;&lt;hr size=&quot;1&quot; style=&quot;border-style:solid;&quot;&gt;&lt;p style=&quot;margin:0px;margin-left:4px;&quot;&gt;&lt;font style=&quot;font-size: 16px;&quot;&gt;&lt;b&gt;&lt;u&gt;MÃ©todos&lt;/u&gt;&lt;/b&gt;&lt;/font&gt;&lt;/p&gt;&lt;p style=&quot;margin:0px;margin-left:4px;&quot;&gt;&lt;font style=&quot;font-size: 16px;&quot;&gt;+ __post_init__(): callable&lt;br&gt;+ _get_client(): callable&lt;/font&gt;&lt;/p&gt;&lt;p style=&quot;margin:0px;margin-left:4px;&quot;&gt;&lt;font style=&quot;font-size: 16px;&quot;&gt;+ files_names() : callable&lt;/font&gt;&lt;/p&gt;&lt;p style=&quot;margin:0px;margin-left:4px;&quot;&gt;&lt;font style=&quot;font-size: 16px;&quot;&gt;+ get_data(): callable&lt;/font&gt;&lt;/p&gt;" style="verticalAlign=top;align=left;overflow=fill;html=1;whiteSpace=wrap;fillColor=#e1d5e7;strokeColor=#9673a6;" parent="1" vertex="1">
          <mxGeometry x="213.53" y="406" width="356.47" height="324" as="geometry" />
        </mxCell>
        <mxCell id="eGC-M_-U3Qp7cmGm48lb-6" value="&lt;font style=&quot;font-size: 15px; background-color: light-dark(#ffffff, var(--ge-dark-color, #121212));&quot;&gt;Cloud&lt;br&gt;Storage&lt;/font&gt;" style="sketch=0;html=1;verticalAlign=top;labelPosition=center;verticalLabelPosition=bottom;align=center;spacingTop=-6;fontSize=11;fontStyle=1;fontColor=#999999;shape=image;aspect=fixed;imageAspect=0;image=data:image/svg+xml,PHN2ZyB4bWxucz0iaHR0cDovL3d3dy53My5vcmcvMjAwMC9zdmciIHhtbG5zOnY9Imh0dHBzOi8vdmVjdGEuaW8vbmFubyIgd2lkdGg9IjIwIiBoZWlnaHQ9IjE2IiB2aWV3Qm94PSIwIDAgMjAgMTYiPiYjeGE7CTxzdHlsZSB0eXBlPSJ0ZXh0L2NzcyI+JiN4YTsJLnN0MHtmaWxsOiM0Mjg1ZjQ7fSYjeGE7CS5zdDF7ZmlsbDojNjY5ZGY2O30mI3hhOwkuc3Qye2ZpbGw6I2FlY2JmYTt9JiN4YTsJLnN0M3tmaWxsOiNmZmY7fSYjeGE7CTwvc3R5bGU+JiN4YTsJPHBhdGggY2xhc3M9InN0MiIgZD0iTTAgMGgyMHY3SDB6Ii8+JiN4YTsJPHBhdGggY2xhc3M9InN0MSIgZD0iTTE4IDBoMnY3aC0yeiIvPiYjeGE7CTxwYXRoIGNsYXNzPSJzdDAiIGQ9Ik0xOCA3bDItN2gtMnoiLz4mI3hhOwk8cGF0aCBjbGFzcz0ic3QxIiBkPSJNMCAwaDJ2N0gweiIvPiYjeGE7CTxnIGNsYXNzPSJzdDMiPiYjeGE7CQk8cGF0aCBkPSJNNCAzaDZ2MUg0eiIvPiYjeGE7CQk8cmVjdCB4PSIxMyIgeT0iMiIgd2lkdGg9IjMiIGhlaWdodD0iMyIgcng9IjEuNSIvPiYjeGE7CTwvZz4mI3hhOwk8cGF0aCBjbGFzcz0ic3QyIiBkPSJNMCA5aDIwdjdIMHoiLz4mI3hhOwk8cGF0aCBjbGFzcz0ic3QxIiBkPSJNMTggOWgydjdoLTJ6Ii8+JiN4YTsJPHBhdGggY2xhc3M9InN0MCIgZD0iTTE4IDE2bDItN2gtMnoiLz4mI3hhOwk8cGF0aCBjbGFzcz0ic3QxIiBkPSJNMCA5aDJ2N0gweiIvPiYjeGE7CTxnIGNsYXNzPSJzdDMiPiYjeGE7CQk8cGF0aCBkPSJNNCAxMmg2djFINHoiLz4mI3hhOwkJPHJlY3QgeD0iMTMiIHk9IjExIiB3aWR0aD0iMyIgaGVpZ2h0PSIzIiByeD0iMS41Ii8+JiN4YTsJPC9nPiYjeGE7PC9zdmc+;" parent="1" vertex="1">
          <mxGeometry x="90" y="80" width="123.53" height="100" as="geometry" />
        </mxCell>
        <mxCell id="eGC-M_-U3Qp7cmGm48lb-8" value="" style="image;aspect=fixed;html=1;points=[];align=center;fontSize=12;image=img/lib/azure2/general/Files.svg;" parent="1" vertex="1">
          <mxGeometry x="331" y="220" width="82.29" height="90" as="geometry" />
        </mxCell>
        <mxCell id="eGC-M_-U3Qp7cmGm48lb-10" style="edgeStyle=orthogonalEdgeStyle;rounded=0;orthogonalLoop=1;jettySize=auto;html=1;entryX=0;entryY=0.353;entryDx=0;entryDy=0;entryPerimeter=0;strokeColor=light-dark(#6D85FD,#EDEDED);" parent="1" source="eGC-M_-U3Qp7cmGm48lb-8" target="eGC-M_-U3Qp7cmGm48lb-1" edge="1">
          <mxGeometry relative="1" as="geometry" />
        </mxCell>
        <mxCell id="ou8MfiwH0s770CWfIr6v-34" style="edgeStyle=orthogonalEdgeStyle;rounded=0;orthogonalLoop=1;jettySize=auto;html=1;entryX=0.5;entryY=0;entryDx=0;entryDy=0;strokeColor=#6D85FD;exitX=0.75;exitY=1;exitDx=0;exitDy=0;" parent="1" source="eGC-M_-U3Qp7cmGm48lb-11" target="ou8MfiwH0s770CWfIr6v-20" edge="1">
          <mxGeometry relative="1" as="geometry" />
        </mxCell>
        <mxCell id="ou8MfiwH0s770CWfIr6v-35" style="edgeStyle=orthogonalEdgeStyle;rounded=0;orthogonalLoop=1;jettySize=auto;html=1;entryX=0.5;entryY=0;entryDx=0;entryDy=0;strokeColor=#6D85FD;" parent="1" source="eGC-M_-U3Qp7cmGm48lb-11" target="ou8MfiwH0s770CWfIr6v-1" edge="1">
          <mxGeometry relative="1" as="geometry" />
        </mxCell>
        <mxCell id="eGC-M_-U3Qp7cmGm48lb-11" value="&lt;p style=&quot;margin:0px;margin-top:4px;text-align:center;&quot;&gt;&lt;b&gt;&lt;font style=&quot;font-size: 17px;&quot;&gt;modules_afp.data.StorageData&lt;/font&gt;&lt;/b&gt;&lt;/p&gt;&lt;font style=&quot;font-size: 14px;&quot;&gt;&lt;br&gt;Utiliza la clase backend.Storage para descargar los archivos de valoresc cuota brutos y netos de LVA almacenados en el &lt;b style=&quot;&quot;&gt;bucket&amp;nbsp;bkt_sim_bi_pprod_raw_cl_risk_inv &lt;/b&gt;del proyecto &lt;b style=&quot;&quot;&gt;bi-pprod&lt;/b&gt;&lt;/font&gt;&lt;br&gt;&lt;br&gt;&lt;hr size=&quot;1&quot; style=&quot;border-style:solid;&quot;&gt;&lt;p style=&quot;margin:0px;margin-left:4px;&quot;&gt;&lt;font style=&quot;font-size: 15px;&quot;&gt;&lt;b&gt;&lt;u&gt;Atributos&lt;/u&gt;&lt;/b&gt;&lt;/font&gt;&lt;/p&gt;&lt;p style=&quot;margin:0px;margin-left:4px;&quot;&gt;&lt;font style=&quot;font-size: 15px;&quot;&gt;+ tipe: str&lt;br&gt;+ vc: str&lt;/font&gt;&lt;/p&gt;&lt;p style=&quot;margin:0px;margin-left:4px;&quot;&gt;&lt;font style=&quot;font-size: 15px;&quot;&gt;+ airflow: bool&lt;/font&gt;&lt;/p&gt;&lt;p style=&quot;margin:0px;margin-left:4px;&quot;&gt;&lt;font style=&quot;font-size: 15px;&quot;&gt;+ update: bool&lt;/font&gt;&lt;/p&gt;&lt;hr size=&quot;1&quot; style=&quot;border-style:solid;&quot;&gt;&lt;p style=&quot;margin:0px;margin-left:4px;&quot;&gt;&lt;font style=&quot;font-size: 16px;&quot;&gt;&lt;b&gt;&lt;u&gt;MÃ©todos&lt;/u&gt;&lt;/b&gt;&lt;/font&gt;&lt;/p&gt;&lt;p style=&quot;margin:0px;margin-left:4px;&quot;&gt;&lt;font style=&quot;font-size: 16px;&quot;&gt;+ __post_init__(): callable&lt;br&gt;+ valores_cuota(): callable&lt;br&gt;&lt;/font&gt;&lt;/p&gt;" style="verticalAlign=top;align=left;overflow=fill;html=1;whiteSpace=wrap;fillColor=#e1d5e7;strokeColor=#9673a6;" parent="1" vertex="1">
          <mxGeometry x="790" y="170" width="380" height="320" as="geometry" />
        </mxCell>
        <mxCell id="eGC-M_-U3Qp7cmGm48lb-15" style="edgeStyle=orthogonalEdgeStyle;rounded=0;orthogonalLoop=1;jettySize=auto;html=1;entryX=-0.007;entryY=0.367;entryDx=0;entryDy=0;entryPerimeter=0;strokeColor=light-dark(#6d85fd, #ededed);" parent="1" source="eGC-M_-U3Qp7cmGm48lb-6" target="eGC-M_-U3Qp7cmGm48lb-8" edge="1">
          <mxGeometry relative="1" as="geometry" />
        </mxCell>
        <mxCell id="eGC-M_-U3Qp7cmGm48lb-47" value="&lt;p style=&quot;margin:0px;margin-top:4px;text-align:center;&quot;&gt;&lt;b&gt;&lt;font style=&quot;font-size: 17px;&quot;&gt;modules_afp.backend.Bigquery&lt;/font&gt;&lt;/b&gt;&lt;/p&gt;&lt;div&gt;&lt;br&gt;&lt;/div&gt;&lt;font style=&quot;font-size: 14px;&quot;&gt;Permite leer y escribir en una base de datos de BigQuery&lt;/font&gt;&lt;br&gt;&lt;br&gt;&lt;hr size=&quot;1&quot; style=&quot;border-style:solid;&quot;&gt;&lt;p style=&quot;margin:0px;margin-left:4px;&quot;&gt;&lt;font style=&quot;font-size: 15px;&quot;&gt;&lt;b&gt;&lt;u&gt;Atributos&lt;/u&gt;&lt;/b&gt;&lt;/font&gt;&lt;/p&gt;&lt;p style=&quot;margin:0px;margin-left:4px;&quot;&gt;&lt;font style=&quot;font-size: 15px;&quot;&gt;+ token_path : str&lt;/font&gt;&lt;/p&gt;&lt;p style=&quot;margin:0px;margin-left:4px;&quot;&gt;&lt;font style=&quot;font-size: 15px;&quot;&gt;+ db : str&lt;br&gt;+ project : str&lt;/font&gt;&lt;/p&gt;&lt;p style=&quot;margin:0px;margin-left:4px;&quot;&gt;&lt;font style=&quot;font-size: 15px;&quot;&gt;+ airflow: bool&lt;/font&gt;&lt;/p&gt;&lt;hr size=&quot;1&quot; style=&quot;border-style:solid;&quot;&gt;&lt;p style=&quot;margin:0px;margin-left:4px;&quot;&gt;&lt;font style=&quot;font-size: 16px;&quot;&gt;&lt;b&gt;&lt;u&gt;MÃ©todos&lt;/u&gt;&lt;/b&gt;&lt;/font&gt;&lt;/p&gt;&lt;p style=&quot;margin:0px;margin-left:4px;&quot;&gt;&lt;font style=&quot;font-size: 16px;&quot;&gt;+ __post_init__(): callable&lt;br&gt;+ read_bigqueryt(): callable&lt;/font&gt;&lt;/p&gt;&lt;p style=&quot;margin:0px;margin-left:4px;&quot;&gt;&lt;font style=&quot;font-size: 16px;&quot;&gt;+ update_bigquery() : callable&lt;/font&gt;&lt;/p&gt;&lt;p style=&quot;margin:0px;margin-left:4px;&quot;&gt;&lt;font style=&quot;font-size: 16px;&quot;&gt;+ ejecutar_consulta(): callable&lt;/font&gt;&lt;/p&gt;" style="verticalAlign=top;align=left;overflow=fill;html=1;whiteSpace=wrap;fillColor=#e1d5e7;strokeColor=#9673a6;" parent="1" vertex="1">
          <mxGeometry x="1370" y="400" width="356.47" height="324" as="geometry" />
        </mxCell>
        <mxCell id="eGC-M_-U3Qp7cmGm48lb-51" value="" style="image;sketch=0;aspect=fixed;html=1;points=[];align=center;fontSize=12;image=img/lib/mscae/SQL_Database_generic.svg;strokeColor=#006658;fontColor=#5C5C5C;fillColor=#21C0A5;" parent="1" vertex="1">
          <mxGeometry x="1420" y="50" width="98.8" height="130" as="geometry" />
        </mxCell>
        <mxCell id="eGC-M_-U3Qp7cmGm48lb-55" value="&lt;font style=&quot;font-size: 15px; background-color: light-dark(#ffffff, var(--ge-dark-color, #121212));&quot;&gt;BigQuery&lt;/font&gt;" style="sketch=0;html=1;verticalAlign=top;labelPosition=center;verticalLabelPosition=bottom;align=center;spacingTop=-6;fontSize=11;fontStyle=1;fontColor=#999999;shape=image;aspect=fixed;imageAspect=0;image=data:image/svg+xml,PHN2ZyB4bWxucz0iaHR0cDovL3d3dy53My5vcmcvMjAwMC9zdmciIHhtbG5zOnY9Imh0dHBzOi8vdmVjdGEuaW8vbmFubyIgd2lkdGg9IjIwLjAwMTA0NTIyNzA1MDc4IiBoZWlnaHQ9IjIwLjAwMTA0NTIyNzA1MDc4IiBmaWxsLXJ1bGU9ImV2ZW5vZGQiIHZpZXdCb3g9IjAgMCAyMC4wMDEwNDUyMjcwNTA3OCAyMC4wMDEwNDUyMjcwNTA3OCI+JiN4YTsJPHN0eWxlIHR5cGU9InRleHQvY3NzIj4mI3hhOwkuc3Qwe2ZpbGw6I2FlY2JmYTt9JiN4YTsJLnN0MXtmaWxsOiM2NjlkZjY7fSYjeGE7CS5zdDJ7ZmlsbDojNDI4NWY0O30mI3hhOwk8L3N0eWxlPiYjeGE7CTxwYXRoIGNsYXNzPSJzdDAiIGQ9Ik00LjczIDguODN2Mi42M2E0LjkxIDQuOTEgMCAwIDAgMS43MSAxLjc0VjguODN6Ii8+JiN4YTsJPHBhdGggY2xhc3M9InN0MSIgZD0iTTcuODkgNi40MXY3LjUzQTcuNjIgNy42MiAwIDAgMCA5IDE0YTggOCAwIDAgMCAxIDBWNi40MXoiLz4mI3hhOwk8cGF0aCBjbGFzcz0ic3QwIiBkPSJNMTEuNjQgOS44NnYzLjI5YTUgNSAwIDAgMCAxLjctMS44MlY5Ljg2eiIvPiYjeGE7CTxwYXRoIGNsYXNzPSJzdDIiIGQ9Ik0xNS43NCAxNC4zMmwtMS40MiAxLjQyYS40Mi40MiAwIDAgMCAwIC42bDMuNTQgMy41NGEuNDIuNDIgMCAwIDAgLjU5IDBsMS40My0xLjQzYS40Mi40MiAwIDAgMCAwLS41OWwtMy41NC0zLjU0YS40Mi40MiAwIDAgMC0uNiAwIi8+JiN4YTsJPHBhdGggY2xhc3M9InN0MSIgZD0iTTkgMGE5IDkgMCAxIDAgMCAxOEE5IDkgMCAxIDAgOSAwbTAgMTUuNjlhNi42OCA2LjY4IDAgMCAxIC4wMDctMTMuMzYgNi42OCA2LjY4IDAgMCAxIDQuNzI3IDExLjQwM0E2LjY4IDYuNjggMCAwIDEgOSAxNS42OSIvPiYjeGE7PC9zdmc+;strokeColor=#006658;fillColor=#21C0A5;" parent="1" vertex="1">
          <mxGeometry x="1370" y="130" width="80" height="80" as="geometry" />
        </mxCell>
        <mxCell id="eGC-M_-U3Qp7cmGm48lb-56" style="edgeStyle=orthogonalEdgeStyle;rounded=0;orthogonalLoop=1;jettySize=auto;html=1;entryX=0.731;entryY=0.982;entryDx=0;entryDy=0;entryPerimeter=0;strokeColor=#6D85FD;fontColor=#5C5C5C;fillColor=#21C0A5;" parent="1" source="eGC-M_-U3Qp7cmGm48lb-47" target="eGC-M_-U3Qp7cmGm48lb-51" edge="1">
          <mxGeometry relative="1" as="geometry" />
        </mxCell>
        <mxCell id="ou8MfiwH0s770CWfIr6v-1" value="StorageData.vc" style="shape=table;startSize=30;container=1;collapsible=0;childLayout=tableLayout;strokeColor=default;fontSize=16;swimlaneFillColor=default;fillColor=#6666FF;fontColor=light-dark(#fcfcfc, #ededed);" parent="1" vertex="1">
          <mxGeometry x="890" y="730" width="180" height="150" as="geometry" />
        </mxCell>
        <mxCell id="ou8MfiwH0s770CWfIr6v-2" value="" style="shape=tableRow;horizontal=0;startSize=0;swimlaneHead=0;swimlaneBody=0;strokeColor=inherit;top=0;left=0;bottom=0;right=0;collapsible=0;dropTarget=0;fillColor=none;points=[[0,0.5],[1,0.5]];portConstraint=eastwest;fontSize=16;" parent="ou8MfiwH0s770CWfIr6v-1" vertex="1">
          <mxGeometry y="30" width="180" height="40" as="geometry" />
        </mxCell>
        <mxCell id="ou8MfiwH0s770CWfIr6v-3" value="" style="shape=partialRectangle;html=1;whiteSpace=wrap;connectable=0;strokeColor=inherit;overflow=hidden;fillColor=default;top=0;left=0;bottom=0;right=0;pointerEvents=1;fontSize=16;" parent="ou8MfiwH0s770CWfIr6v-2" vertex="1">
          <mxGeometry width="60" height="40" as="geometry">
            <mxRectangle width="60" height="40" as="alternateBounds" />
          </mxGeometry>
        </mxCell>
        <mxCell id="ou8MfiwH0s770CWfIr6v-4" value="" style="shape=partialRectangle;html=1;whiteSpace=wrap;connectable=0;strokeColor=inherit;overflow=hidden;fillColor=default;top=0;left=0;bottom=0;right=0;pointerEvents=1;fontSize=16;" parent="ou8MfiwH0s770CWfIr6v-2" vertex="1">
          <mxGeometry x="60" width="60" height="40" as="geometry">
            <mxRectangle width="60" height="40" as="alternateBounds" />
          </mxGeometry>
        </mxCell>
        <mxCell id="ou8MfiwH0s770CWfIr6v-5" value="" style="shape=partialRectangle;html=1;whiteSpace=wrap;connectable=0;strokeColor=inherit;overflow=hidden;fillColor=default;top=0;left=0;bottom=0;right=0;pointerEvents=1;fontSize=16;" parent="ou8MfiwH0s770CWfIr6v-2" vertex="1">
          <mxGeometry x="120" width="60" height="40" as="geometry">
            <mxRectangle width="60" height="40" as="alternateBounds" />
          </mxGeometry>
        </mxCell>
        <mxCell id="ou8MfiwH0s770CWfIr6v-6" value="" style="shape=tableRow;horizontal=0;startSize=0;swimlaneHead=0;swimlaneBody=0;strokeColor=inherit;top=0;left=0;bottom=0;right=0;collapsible=0;dropTarget=0;fillColor=none;points=[[0,0.5],[1,0.5]];portConstraint=eastwest;fontSize=16;" parent="ou8MfiwH0s770CWfIr6v-1" vertex="1">
          <mxGeometry y="70" width="180" height="40" as="geometry" />
        </mxCell>
        <mxCell id="ou8MfiwH0s770CWfIr6v-7" value="" style="shape=partialRectangle;html=1;whiteSpace=wrap;connectable=0;strokeColor=inherit;overflow=hidden;fillColor=default;top=0;left=0;bottom=0;right=0;pointerEvents=1;fontSize=16;" parent="ou8MfiwH0s770CWfIr6v-6" vertex="1">
          <mxGeometry width="60" height="40" as="geometry">
            <mxRectangle width="60" height="40" as="alternateBounds" />
          </mxGeometry>
        </mxCell>
        <mxCell id="ou8MfiwH0s770CWfIr6v-8" value="" style="shape=partialRectangle;html=1;whiteSpace=wrap;connectable=0;strokeColor=inherit;overflow=hidden;fillColor=default;top=0;left=0;bottom=0;right=0;pointerEvents=1;fontSize=16;" parent="ou8MfiwH0s770CWfIr6v-6" vertex="1">
          <mxGeometry x="60" width="60" height="40" as="geometry">
            <mxRectangle width="60" height="40" as="alternateBounds" />
          </mxGeometry>
        </mxCell>
        <mxCell id="ou8MfiwH0s770CWfIr6v-9" value="" style="shape=partialRectangle;html=1;whiteSpace=wrap;connectable=0;strokeColor=inherit;overflow=hidden;fillColor=default;top=0;left=0;bottom=0;right=0;pointerEvents=1;fontSize=16;" parent="ou8MfiwH0s770CWfIr6v-6" vertex="1">
          <mxGeometry x="120" width="60" height="40" as="geometry">
            <mxRectangle width="60" height="40" as="alternateBounds" />
          </mxGeometry>
        </mxCell>
        <mxCell id="ou8MfiwH0s770CWfIr6v-10" value="" style="shape=tableRow;horizontal=0;startSize=0;swimlaneHead=0;swimlaneBody=0;strokeColor=inherit;top=0;left=0;bottom=0;right=0;collapsible=0;dropTarget=0;fillColor=none;points=[[0,0.5],[1,0.5]];portConstraint=eastwest;fontSize=16;" parent="ou8MfiwH0s770CWfIr6v-1" vertex="1">
          <mxGeometry y="110" width="180" height="40" as="geometry" />
        </mxCell>
        <mxCell id="ou8MfiwH0s770CWfIr6v-11" value="" style="shape=partialRectangle;html=1;whiteSpace=wrap;connectable=0;strokeColor=inherit;overflow=hidden;fillColor=default;top=0;left=0;bottom=0;right=0;pointerEvents=1;fontSize=16;" parent="ou8MfiwH0s770CWfIr6v-10" vertex="1">
          <mxGeometry width="60" height="40" as="geometry">
            <mxRectangle width="60" height="40" as="alternateBounds" />
          </mxGeometry>
        </mxCell>
        <mxCell id="ou8MfiwH0s770CWfIr6v-12" value="" style="shape=partialRectangle;html=1;whiteSpace=wrap;connectable=0;strokeColor=inherit;overflow=hidden;fillColor=default;top=0;left=0;bottom=0;right=0;pointerEvents=1;fontSize=16;" parent="ou8MfiwH0s770CWfIr6v-10" vertex="1">
          <mxGeometry x="60" width="60" height="40" as="geometry">
            <mxRectangle width="60" height="40" as="alternateBounds" />
          </mxGeometry>
        </mxCell>
        <mxCell id="ou8MfiwH0s770CWfIr6v-13" value="" style="shape=partialRectangle;html=1;whiteSpace=wrap;connectable=0;strokeColor=inherit;overflow=hidden;fillColor=default;top=0;left=0;bottom=0;right=0;pointerEvents=1;fontSize=16;" parent="ou8MfiwH0s770CWfIr6v-10" vertex="1">
          <mxGeometry x="120" width="60" height="40" as="geometry">
            <mxRectangle width="60" height="40" as="alternateBounds" />
          </mxGeometry>
        </mxCell>
        <mxCell id="ou8MfiwH0s770CWfIr6v-20" value="StorageData.vc" style="shape=table;startSize=30;container=1;collapsible=0;childLayout=tableLayout;strokeColor=default;fontSize=16;swimlaneFillColor=default;fillColor=#6666FF;fontColor=light-dark(#fcfcfc, #ededed);" parent="1" vertex="1">
          <mxGeometry x="1070" y="560" width="180" height="150" as="geometry" />
        </mxCell>
        <mxCell id="ou8MfiwH0s770CWfIr6v-21" value="" style="shape=tableRow;horizontal=0;startSize=0;swimlaneHead=0;swimlaneBody=0;strokeColor=inherit;top=0;left=0;bottom=0;right=0;collapsible=0;dropTarget=0;fillColor=none;points=[[0,0.5],[1,0.5]];portConstraint=eastwest;fontSize=16;" parent="ou8MfiwH0s770CWfIr6v-20" vertex="1">
          <mxGeometry y="30" width="180" height="40" as="geometry" />
        </mxCell>
        <mxCell id="ou8MfiwH0s770CWfIr6v-22" value="" style="shape=partialRectangle;html=1;whiteSpace=wrap;connectable=0;strokeColor=inherit;overflow=hidden;fillColor=default;top=0;left=0;bottom=0;right=0;pointerEvents=1;fontSize=16;" parent="ou8MfiwH0s770CWfIr6v-21" vertex="1">
          <mxGeometry width="60" height="40" as="geometry">
            <mxRectangle width="60" height="40" as="alternateBounds" />
          </mxGeometry>
        </mxCell>
        <mxCell id="ou8MfiwH0s770CWfIr6v-23" value="" style="shape=partialRectangle;html=1;whiteSpace=wrap;connectable=0;strokeColor=inherit;overflow=hidden;fillColor=default;top=0;left=0;bottom=0;right=0;pointerEvents=1;fontSize=16;" parent="ou8MfiwH0s770CWfIr6v-21" vertex="1">
          <mxGeometry x="60" width="60" height="40" as="geometry">
            <mxRectangle width="60" height="40" as="alternateBounds" />
          </mxGeometry>
        </mxCell>
        <mxCell id="ou8MfiwH0s770CWfIr6v-24" value="" style="shape=partialRectangle;html=1;whiteSpace=wrap;connectable=0;strokeColor=inherit;overflow=hidden;fillColor=default;top=0;left=0;bottom=0;right=0;pointerEvents=1;fontSize=16;" parent="ou8MfiwH0s770CWfIr6v-21" vertex="1">
          <mxGeometry x="120" width="60" height="40" as="geometry">
            <mxRectangle width="60" height="40" as="alternateBounds" />
          </mxGeometry>
        </mxCell>
        <mxCell id="ou8MfiwH0s770CWfIr6v-25" value="" style="shape=tableRow;horizontal=0;startSize=0;swimlaneHead=0;swimlaneBody=0;strokeColor=inherit;top=0;left=0;bottom=0;right=0;collapsible=0;dropTarget=0;fillColor=none;points=[[0,0.5],[1,0.5]];portConstraint=eastwest;fontSize=16;" parent="ou8MfiwH0s770CWfIr6v-20" vertex="1">
          <mxGeometry y="70" width="180" height="40" as="geometry" />
        </mxCell>
        <mxCell id="ou8MfiwH0s770CWfIr6v-26" value="" style="shape=partialRectangle;html=1;whiteSpace=wrap;connectable=0;strokeColor=inherit;overflow=hidden;fillColor=default;top=0;left=0;bottom=0;right=0;pointerEvents=1;fontSize=16;" parent="ou8MfiwH0s770CWfIr6v-25" vertex="1">
          <mxGeometry width="60" height="40" as="geometry">
            <mxRectangle width="60" height="40" as="alternateBounds" />
          </mxGeometry>
        </mxCell>
        <mxCell id="ou8MfiwH0s770CWfIr6v-27" value="" style="shape=partialRectangle;html=1;whiteSpace=wrap;connectable=0;strokeColor=inherit;overflow=hidden;fillColor=default;top=0;left=0;bottom=0;right=0;pointerEvents=1;fontSize=16;" parent="ou8MfiwH0s770CWfIr6v-25" vertex="1">
          <mxGeometry x="60" width="60" height="40" as="geometry">
            <mxRectangle width="60" height="40" as="alternateBounds" />
          </mxGeometry>
        </mxCell>
        <mxCell id="ou8MfiwH0s770CWfIr6v-28" value="" style="shape=partialRectangle;html=1;whiteSpace=wrap;connectable=0;strokeColor=inherit;overflow=hidden;fillColor=default;top=0;left=0;bottom=0;right=0;pointerEvents=1;fontSize=16;" parent="ou8MfiwH0s770CWfIr6v-25" vertex="1">
          <mxGeometry x="120" width="60" height="40" as="geometry">
            <mxRectangle width="60" height="40" as="alternateBounds" />
          </mxGeometry>
        </mxCell>
        <mxCell id="ou8MfiwH0s770CWfIr6v-29" value="" style="shape=tableRow;horizontal=0;startSize=0;swimlaneHead=0;swimlaneBody=0;strokeColor=inherit;top=0;left=0;bottom=0;right=0;collapsible=0;dropTarget=0;fillColor=none;points=[[0,0.5],[1,0.5]];portConstraint=eastwest;fontSize=16;" parent="ou8MfiwH0s770CWfIr6v-20" vertex="1">
          <mxGeometry y="110" width="180" height="40" as="geometry" />
        </mxCell>
        <mxCell id="ou8MfiwH0s770CWfIr6v-30" value="" style="shape=partialRectangle;html=1;whiteSpace=wrap;connectable=0;strokeColor=inherit;overflow=hidden;fillColor=default;top=0;left=0;bottom=0;right=0;pointerEvents=1;fontSize=16;" parent="ou8MfiwH0s770CWfIr6v-29" vertex="1">
          <mxGeometry width="60" height="40" as="geometry">
            <mxRectangle width="60" height="40" as="alternateBounds" />
          </mxGeometry>
        </mxCell>
        <mxCell id="ou8MfiwH0s770CWfIr6v-31" value="" style="shape=partialRectangle;html=1;whiteSpace=wrap;connectable=0;strokeColor=inherit;overflow=hidden;fillColor=default;top=0;left=0;bottom=0;right=0;pointerEvents=1;fontSize=16;" parent="ou8MfiwH0s770CWfIr6v-29" vertex="1">
          <mxGeometry x="60" width="60" height="40" as="geometry">
            <mxRectangle width="60" height="40" as="alternateBounds" />
          </mxGeometry>
        </mxCell>
        <mxCell id="ou8MfiwH0s770CWfIr6v-32" value="" style="shape=partialRectangle;html=1;whiteSpace=wrap;connectable=0;strokeColor=inherit;overflow=hidden;fillColor=default;top=0;left=0;bottom=0;right=0;pointerEvents=1;fontSize=16;" parent="ou8MfiwH0s770CWfIr6v-29" vertex="1">
          <mxGeometry x="120" width="60" height="40" as="geometry">
            <mxRectangle width="60" height="40" as="alternateBounds" />
          </mxGeometry>
        </mxCell>
        <mxCell id="ou8MfiwH0s770CWfIr6v-37" style="edgeStyle=orthogonalEdgeStyle;rounded=0;orthogonalLoop=1;jettySize=auto;html=1;entryX=0;entryY=0.287;entryDx=0;entryDy=0;entryPerimeter=0;strokeColor=#6D85FD;" parent="1" source="ou8MfiwH0s770CWfIr6v-21" target="eGC-M_-U3Qp7cmGm48lb-47" edge="1">
          <mxGeometry relative="1" as="geometry" />
        </mxCell>
        <mxCell id="ou8MfiwH0s770CWfIr6v-38" style="edgeStyle=orthogonalEdgeStyle;rounded=0;orthogonalLoop=1;jettySize=auto;html=1;strokeColor=#6D85FD;" parent="1" source="ou8MfiwH0s770CWfIr6v-6" edge="1">
          <mxGeometry relative="1" as="geometry">
            <mxPoint x="1490" y="730" as="targetPoint" />
          </mxGeometry>
        </mxCell>
      </root>
    </mxGraphModel>
  </diagram>
  <diagram id="f7P6owZH6LvjxUy-dje-" name="Framework Riesgo">
    <mxGraphModel dx="2457" dy="2043" grid="1" gridSize="10" guides="1" tooltips="1" connect="1" arrows="0" fold="1" page="1" pageScale="1" pageWidth="827" pageHeight="1169" math="0" shadow="0">
      <root>
        <mxCell id="0" />
        <mxCell id="1" parent="0" />
        <mxCell id="G7JNU7avih7ZhP5C-60Y-23" style="edgeStyle=orthogonalEdgeStyle;rounded=0;orthogonalLoop=1;jettySize=auto;html=1;shape=link;" edge="1" parent="1" source="G7JNU7avih7ZhP5C-60Y-1" target="G7JNU7avih7ZhP5C-60Y-15">
          <mxGeometry relative="1" as="geometry" />
        </mxCell>
        <mxCell id="G7JNU7avih7ZhP5C-60Y-24" style="edgeStyle=orthogonalEdgeStyle;rounded=0;orthogonalLoop=1;jettySize=auto;html=1;shape=link;" edge="1" parent="1" source="G7JNU7avih7ZhP5C-60Y-1" target="G7JNU7avih7ZhP5C-60Y-7">
          <mxGeometry relative="1" as="geometry" />
        </mxCell>
        <mxCell id="G7JNU7avih7ZhP5C-60Y-1" value="&lt;font style=&quot;font-size: 22px; color: rgb(242, 242, 242); background-color: light-dark(rgb(0, 0, 1), rgb(237, 237, 237));&quot;&gt;Framework_Riesgo&lt;/font&gt;" style="shape=cylinder3;whiteSpace=wrap;html=1;boundedLbl=1;backgroundOutline=1;size=15;" vertex="1" parent="1">
          <mxGeometry x="-30" y="110" width="110" height="150" as="geometry" />
        </mxCell>
        <mxCell id="G7JNU7avih7ZhP5C-60Y-7" value="RIESGO_DM_METRICAS" style="swimlane;fontStyle=0;childLayout=stackLayout;horizontal=1;startSize=30;horizontalStack=0;resizeParent=1;resizeParentMax=0;resizeLast=0;collapsible=1;marginBottom=0;whiteSpace=wrap;html=1;fillColor=#dae8fc;strokeColor=#6c8ebf;" vertex="1" parent="1">
          <mxGeometry x="230" y="150" width="220" height="30" as="geometry" />
        </mxCell>
        <mxCell id="G7JNU7avih7ZhP5C-60Y-15" value="RIESGO_FT_FONDOS" style="swimlane;fontStyle=0;childLayout=stackLayout;horizontal=1;startSize=30;horizontalStack=0;resizeParent=1;resizeParentMax=0;resizeLast=0;collapsible=1;marginBottom=0;whiteSpace=wrap;html=1;fillColor=#dae8fc;strokeColor=#6c8ebf;" vertex="1" parent="1">
          <mxGeometry x="230" y="220" width="220" height="30" as="geometry" />
        </mxCell>
        <mxCell id="G7JNU7avih7ZhP5C-60Y-29" value="&lt;font style=&quot;font-size: 15px;&quot;&gt;lst_metricas : list&lt;/font&gt;" style="whiteSpace=wrap;html=1;fillColor=#e1d5e7;strokeColor=#9673a6;fontStyle=0;startSize=30;horizontal=1;" vertex="1" parent="1">
          <mxGeometry x="1085" y="360" width="225" height="55" as="geometry" />
        </mxCell>
        <mxCell id="G7JNU7avih7ZhP5C-60Y-31" value="" style="endArrow=classic;html=1;rounded=0;exitX=1.005;exitY=0.397;exitDx=0;exitDy=0;exitPerimeter=0;entryX=0.011;entryY=0.619;entryDx=0;entryDy=0;entryPerimeter=0;" edge="1" parent="1" source="G7JNU7avih7ZhP5C-60Y-7" target="VyngWISYHlR3QVI3Rs7T-1">
          <mxGeometry relative="1" as="geometry">
            <mxPoint x="570" y="110" as="sourcePoint" />
            <mxPoint x="940" y="160" as="targetPoint" />
          </mxGeometry>
        </mxCell>
        <mxCell id="G7JNU7avih7ZhP5C-60Y-32" value="&lt;font style=&quot;font-size: 14px;&quot;&gt;Se filtran las mÃ©tricas donde TIPO=&#39;absoluto&#39;&lt;/font&gt;" style="edgeLabel;resizable=0;html=1;;align=center;verticalAlign=middle;" connectable="0" vertex="1" parent="G7JNU7avih7ZhP5C-60Y-31">
          <mxGeometry relative="1" as="geometry" />
        </mxCell>
        <mxCell id="G7JNU7avih7ZhP5C-60Y-33" value="QUERY" style="edgeLabel;resizable=0;html=1;;align=left;verticalAlign=bottom;" connectable="0" vertex="1" parent="G7JNU7avih7ZhP5C-60Y-31">
          <mxGeometry x="-1" relative="1" as="geometry">
            <mxPoint x="19" as="offset" />
          </mxGeometry>
        </mxCell>
        <mxCell id="G7JNU7avih7ZhP5C-60Y-35" value="python object" style="text;html=1;align=center;verticalAlign=middle;whiteSpace=wrap;rounded=0;" vertex="1" parent="1">
          <mxGeometry x="1095" y="330" width="110" height="30" as="geometry" />
        </mxCell>
        <mxCell id="G7JNU7avih7ZhP5C-60Y-36" value="" style="endArrow=classic;html=1;rounded=0;exitX=1;exitY=0.5;exitDx=0;exitDy=0;entryX=0.005;entryY=0.849;entryDx=0;entryDy=0;entryPerimeter=0;" edge="1" parent="1" source="G7JNU7avih7ZhP5C-60Y-15" target="VyngWISYHlR3QVI3Rs7T-1">
          <mxGeometry relative="1" as="geometry">
            <mxPoint x="532.1999999999998" y="354.02" as="sourcePoint" />
            <mxPoint x="930" y="235" as="targetPoint" />
          </mxGeometry>
        </mxCell>
        <mxCell id="G7JNU7avih7ZhP5C-60Y-37" value="&lt;font style=&quot;font-size: 14px;&quot;&gt;Se filtran las distintas categorÃ­as de LVA&lt;/font&gt;" style="edgeLabel;resizable=0;html=1;;align=center;verticalAlign=middle;" connectable="0" vertex="1" parent="G7JNU7avih7ZhP5C-60Y-36">
          <mxGeometry relative="1" as="geometry" />
        </mxCell>
        <mxCell id="G7JNU7avih7ZhP5C-60Y-38" value="QUERY" style="edgeLabel;resizable=0;html=1;;align=left;verticalAlign=bottom;" connectable="0" vertex="1" parent="G7JNU7avih7ZhP5C-60Y-36">
          <mxGeometry x="-1" relative="1" as="geometry">
            <mxPoint x="30" as="offset" />
          </mxGeometry>
        </mxCell>
        <mxCell id="VyngWISYHlR3QVI3Rs7T-41" style="edgeStyle=orthogonalEdgeStyle;rounded=0;orthogonalLoop=1;jettySize=auto;html=1;" edge="1" parent="1" source="G7JNU7avih7ZhP5C-60Y-39">
          <mxGeometry relative="1" as="geometry">
            <mxPoint x="910" y="527.5" as="targetPoint" />
          </mxGeometry>
        </mxCell>
        <mxCell id="G7JNU7avih7ZhP5C-60Y-39" value="&lt;font style=&quot;font-size: 15px;&quot;&gt;lst_categorias : list&lt;/font&gt;" style="whiteSpace=wrap;html=1;fillColor=#e1d5e7;strokeColor=#9673a6;fontStyle=0;startSize=30;horizontal=1;" vertex="1" parent="1">
          <mxGeometry x="1085" y="500" width="225" height="55" as="geometry" />
        </mxCell>
        <mxCell id="G7JNU7avih7ZhP5C-60Y-42" value="python object" style="text;html=1;align=center;verticalAlign=middle;whiteSpace=wrap;rounded=0;" vertex="1" parent="1">
          <mxGeometry x="1110" y="470" width="110" height="30" as="geometry" />
        </mxCell>
        <mxCell id="VyngWISYHlR3QVI3Rs7T-51" style="edgeStyle=orthogonalEdgeStyle;rounded=0;orthogonalLoop=1;jettySize=auto;html=1;entryX=1;entryY=0.5;entryDx=0;entryDy=0;" edge="1" parent="1" source="nYZciMFxeq2NOOxQ_QTz-1" target="VyngWISYHlR3QVI3Rs7T-49">
          <mxGeometry relative="1" as="geometry" />
        </mxCell>
        <mxCell id="nYZciMFxeq2NOOxQ_QTz-1" value="&lt;p style=&quot;margin:0px;margin-top:4px;text-align:center;&quot;&gt;&lt;b&gt;&lt;font style=&quot;font-size: 17px;&quot;&gt;modules_risk.data.Retornos_Categoria&lt;/font&gt;&lt;/b&gt;&lt;/p&gt;&lt;div&gt;&lt;br&gt;&lt;/div&gt;&lt;font style=&quot;font-size: 14px;&quot;&gt;Utiliza la informaciÃ³n de valores cuota del datasset LVA_DATA, los retornos en CLP y Moneda Original, de los fondos de una categorÃ­a en especÃ­fico.&lt;/font&gt;&lt;br&gt;&lt;br&gt;&lt;hr size=&quot;1&quot; style=&quot;border-style:solid;&quot;&gt;&lt;p style=&quot;margin:0px;margin-left:4px;&quot;&gt;&lt;font style=&quot;font-size: 15px;&quot;&gt;&lt;b&gt;&lt;u&gt;Atributos&lt;/u&gt;&lt;/b&gt;&lt;/font&gt;&lt;/p&gt;&lt;p style=&quot;margin:0px;margin-left:4px;&quot;&gt;&lt;font style=&quot;font-size: 15px;&quot;&gt;+ date : str&lt;br&gt;+ categorÃ­a : str&lt;/font&gt;&lt;/p&gt;&lt;p style=&quot;margin:0px;margin-left:4px;&quot;&gt;&lt;font style=&quot;font-size: 15px;&quot;&gt;+ fondos: pd.DataFrame&lt;/font&gt;&lt;/p&gt;&lt;p style=&quot;margin:0px;margin-left:4px;&quot;&gt;&lt;font style=&quot;font-size: 15px;&quot;&gt;+ vc_brutos : pd.DataFrame&lt;/font&gt;&lt;/p&gt;&lt;p style=&quot;margin:0px;margin-left:4px;&quot;&gt;&lt;font style=&quot;font-size: 15px;&quot;&gt;+ tipo_retorno : str&lt;/font&gt;&lt;/p&gt;&lt;p style=&quot;margin:0px;margin-left:4px;&quot;&gt;&lt;font style=&quot;font-size: 15px;&quot;&gt;+ data_retornos : pd.DataFrame&lt;/font&gt;&lt;/p&gt;&lt;hr size=&quot;1&quot; style=&quot;border-style:solid;&quot;&gt;&lt;p style=&quot;margin:0px;margin-left:4px;&quot;&gt;&lt;font style=&quot;font-size: 16px;&quot;&gt;&lt;b&gt;&lt;u&gt;MÃ©todos&lt;/u&gt;&lt;/b&gt;&lt;/font&gt;&lt;/p&gt;&lt;p style=&quot;margin:0px;margin-left:4px;&quot;&gt;&lt;font style=&quot;font-size: 16px;&quot;&gt;+ __post_init__() : callable&lt;br&gt;+ serie_retornos() : callable&lt;/font&gt;&lt;/p&gt;" style="verticalAlign=top;align=left;overflow=fill;html=1;whiteSpace=wrap;fillColor=#e1d5e7;strokeColor=#9673a6;" vertex="1" parent="1">
          <mxGeometry x="660" y="360" width="356.47" height="327" as="geometry" />
        </mxCell>
        <mxCell id="VyngWISYHlR3QVI3Rs7T-1" value="&lt;p style=&quot;margin:0px;margin-top:4px;text-align:center;&quot;&gt;&lt;b&gt;&lt;font style=&quot;font-size: 17px;&quot;&gt;modules_risk.backend.Bigquery&lt;/font&gt;&lt;/b&gt;&lt;/p&gt;&lt;div&gt;&lt;br&gt;&lt;/div&gt;&lt;font style=&quot;font-size: 14px;&quot;&gt;Permite leer y escribir en una base de datos de BigQuery&lt;/font&gt;&lt;br&gt;&lt;br&gt;&lt;hr size=&quot;1&quot; style=&quot;border-style:solid;&quot;&gt;&lt;p style=&quot;margin:0px;margin-left:4px;&quot;&gt;&lt;font style=&quot;font-size: 15px;&quot;&gt;&lt;b&gt;&lt;u&gt;Atributos&lt;/u&gt;&lt;/b&gt;&lt;/font&gt;&lt;/p&gt;&lt;p style=&quot;margin:0px;margin-left:4px;&quot;&gt;&lt;font style=&quot;font-size: 15px;&quot;&gt;+ token_path : str&lt;/font&gt;&lt;/p&gt;&lt;p style=&quot;margin:0px;margin-left:4px;&quot;&gt;&lt;font style=&quot;font-size: 15px;&quot;&gt;+ db : str&lt;br&gt;+ project : str&lt;/font&gt;&lt;/p&gt;&lt;p style=&quot;margin:0px;margin-left:4px;&quot;&gt;&lt;font style=&quot;font-size: 15px;&quot;&gt;+ airflow: bool&lt;/font&gt;&lt;/p&gt;&lt;hr size=&quot;1&quot; style=&quot;border-style:solid;&quot;&gt;&lt;p style=&quot;margin:0px;margin-left:4px;&quot;&gt;&lt;font style=&quot;font-size: 16px;&quot;&gt;&lt;b&gt;&lt;u&gt;MÃ©todos&lt;/u&gt;&lt;/b&gt;&lt;/font&gt;&lt;/p&gt;&lt;p style=&quot;margin:0px;margin-left:4px;&quot;&gt;&lt;font style=&quot;font-size: 16px;&quot;&gt;+ __post_init__(): callable&lt;br&gt;+ read_bigqueryt(): callable&lt;/font&gt;&lt;/p&gt;&lt;p style=&quot;margin:0px;margin-left:4px;&quot;&gt;&lt;font style=&quot;font-size: 16px;&quot;&gt;+ update_bigquery() : callable&lt;/font&gt;&lt;/p&gt;&lt;p style=&quot;margin:0px;margin-left:4px;&quot;&gt;&lt;font style=&quot;font-size: 16px;&quot;&gt;+ ejecutar_consulta(): callable&lt;/font&gt;&lt;/p&gt;" style="verticalAlign=top;align=left;overflow=fill;html=1;whiteSpace=wrap;fillColor=#e1d5e7;strokeColor=#9673a6;" vertex="1" parent="1">
          <mxGeometry x="986.76" y="-41" width="356.47" height="320" as="geometry" />
        </mxCell>
        <mxCell id="VyngWISYHlR3QVI3Rs7T-9" value="python object" style="text;html=1;align=center;verticalAlign=middle;whiteSpace=wrap;rounded=0;" vertex="1" parent="1">
          <mxGeometry x="1110" y="-71" width="110" height="30" as="geometry" />
        </mxCell>
        <mxCell id="VyngWISYHlR3QVI3Rs7T-13" style="edgeStyle=orthogonalEdgeStyle;rounded=0;orthogonalLoop=1;jettySize=auto;html=1;shape=link;" edge="1" parent="1" source="VyngWISYHlR3QVI3Rs7T-14" target="VyngWISYHlR3QVI3Rs7T-15">
          <mxGeometry relative="1" as="geometry" />
        </mxCell>
        <mxCell id="VyngWISYHlR3QVI3Rs7T-14" value="&lt;span style=&quot;background-color: light-dark(rgb(0, 0, 1), rgb(237, 237, 237)); color: light-dark(rgb(242, 242, 242), rgb(29, 29, 29)); font-size: 22px;&quot;&gt;LVA_DATA&lt;/span&gt;" style="shape=cylinder3;whiteSpace=wrap;html=1;boundedLbl=1;backgroundOutline=1;size=15;" vertex="1" parent="1">
          <mxGeometry x="-30" y="-71" width="110" height="140" as="geometry" />
        </mxCell>
        <mxCell id="VyngWISYHlR3QVI3Rs7T-15" value="LVA_FT_VCBRUTOS" style="swimlane;fontStyle=0;childLayout=stackLayout;horizontal=1;startSize=30;horizontalStack=0;resizeParent=1;resizeParentMax=0;resizeLast=0;collapsible=1;marginBottom=0;whiteSpace=wrap;html=1;fillColor=#dae8fc;strokeColor=#6c8ebf;" vertex="1" parent="1">
          <mxGeometry x="230" y="-16" width="220" height="30" as="geometry" />
        </mxCell>
        <mxCell id="VyngWISYHlR3QVI3Rs7T-17" value="" style="endArrow=classic;html=1;rounded=0;exitX=1.005;exitY=0.397;exitDx=0;exitDy=0;exitPerimeter=0;entryX=0.005;entryY=0.112;entryDx=0;entryDy=0;entryPerimeter=0;" edge="1" parent="1" source="VyngWISYHlR3QVI3Rs7T-15" target="VyngWISYHlR3QVI3Rs7T-1">
          <mxGeometry relative="1" as="geometry">
            <mxPoint x="570" y="120" as="sourcePoint" />
            <mxPoint x="980" as="targetPoint" />
          </mxGeometry>
        </mxCell>
        <mxCell id="VyngWISYHlR3QVI3Rs7T-18" value="&lt;span style=&quot;font-size: 14px;&quot;&gt;Se consultan los valores cuota brutos de un rango de fechas&lt;/span&gt;" style="edgeLabel;resizable=0;html=1;;align=center;verticalAlign=middle;" connectable="0" vertex="1" parent="VyngWISYHlR3QVI3Rs7T-17">
          <mxGeometry relative="1" as="geometry" />
        </mxCell>
        <mxCell id="VyngWISYHlR3QVI3Rs7T-19" value="QUERY" style="edgeLabel;resizable=0;html=1;;align=left;verticalAlign=bottom;" connectable="0" vertex="1" parent="VyngWISYHlR3QVI3Rs7T-17">
          <mxGeometry x="-1" relative="1" as="geometry">
            <mxPoint x="29" as="offset" />
          </mxGeometry>
        </mxCell>
        <mxCell id="VyngWISYHlR3QVI3Rs7T-28" value="&lt;span style=&quot;font-size: 15px;&quot;&gt;df_vc_brutos : pd.DataFrame&lt;/span&gt;" style="whiteSpace=wrap;html=1;fillColor=#e1d5e7;strokeColor=#9673a6;fontStyle=0;startSize=30;horizontal=1;" vertex="1" parent="1">
          <mxGeometry x="1085" y="632" width="225" height="55" as="geometry" />
        </mxCell>
        <mxCell id="VyngWISYHlR3QVI3Rs7T-29" value="python object" style="text;html=1;align=center;verticalAlign=middle;whiteSpace=wrap;rounded=0;" vertex="1" parent="1">
          <mxGeometry x="1110" y="602" width="110" height="30" as="geometry" />
        </mxCell>
        <mxCell id="VyngWISYHlR3QVI3Rs7T-32" value="" style="endArrow=none;html=1;rounded=0;" edge="1" parent="1">
          <mxGeometry width="50" height="50" relative="1" as="geometry">
            <mxPoint x="1470" y="670" as="sourcePoint" />
            <mxPoint x="1470" y="100" as="targetPoint" />
          </mxGeometry>
        </mxCell>
        <mxCell id="VyngWISYHlR3QVI3Rs7T-35" value="" style="endArrow=none;html=1;rounded=0;" edge="1" parent="1">
          <mxGeometry width="50" height="50" relative="1" as="geometry">
            <mxPoint x="1343.23" y="110" as="sourcePoint" />
            <mxPoint x="1470" y="110" as="targetPoint" />
          </mxGeometry>
        </mxCell>
        <mxCell id="VyngWISYHlR3QVI3Rs7T-37" value="" style="endArrow=classic;html=1;rounded=0;" edge="1" parent="1">
          <mxGeometry width="50" height="50" relative="1" as="geometry">
            <mxPoint x="1470" y="387" as="sourcePoint" />
            <mxPoint x="1310" y="387" as="targetPoint" />
          </mxGeometry>
        </mxCell>
        <mxCell id="VyngWISYHlR3QVI3Rs7T-38" value="" style="endArrow=classic;html=1;rounded=0;" edge="1" parent="1">
          <mxGeometry width="50" height="50" relative="1" as="geometry">
            <mxPoint x="1470" y="523" as="sourcePoint" />
            <mxPoint x="1310" y="523" as="targetPoint" />
          </mxGeometry>
        </mxCell>
        <mxCell id="VyngWISYHlR3QVI3Rs7T-39" value="" style="endArrow=classic;html=1;rounded=0;" edge="1" parent="1">
          <mxGeometry width="50" height="50" relative="1" as="geometry">
            <mxPoint x="1470" y="659" as="sourcePoint" />
            <mxPoint x="1310" y="659" as="targetPoint" />
          </mxGeometry>
        </mxCell>
        <mxCell id="VyngWISYHlR3QVI3Rs7T-40" style="edgeStyle=orthogonalEdgeStyle;rounded=0;orthogonalLoop=1;jettySize=auto;html=1;entryX=1.01;entryY=0.084;entryDx=0;entryDy=0;entryPerimeter=0;" edge="1" parent="1" source="G7JNU7avih7ZhP5C-60Y-29" target="nYZciMFxeq2NOOxQ_QTz-1">
          <mxGeometry relative="1" as="geometry" />
        </mxCell>
        <mxCell id="VyngWISYHlR3QVI3Rs7T-42" style="edgeStyle=orthogonalEdgeStyle;rounded=0;orthogonalLoop=1;jettySize=auto;html=1;entryX=1.003;entryY=0.916;entryDx=0;entryDy=0;entryPerimeter=0;" edge="1" parent="1" source="VyngWISYHlR3QVI3Rs7T-28" target="nYZciMFxeq2NOOxQ_QTz-1">
          <mxGeometry relative="1" as="geometry" />
        </mxCell>
        <mxCell id="W6At6rboIIjmuKqwYmCF-3" style="edgeStyle=orthogonalEdgeStyle;rounded=0;orthogonalLoop=1;jettySize=auto;html=1;" edge="1" parent="1" source="VyngWISYHlR3QVI3Rs7T-49" target="W6At6rboIIjmuKqwYmCF-1">
          <mxGeometry relative="1" as="geometry" />
        </mxCell>
        <mxCell id="VyngWISYHlR3QVI3Rs7T-49" value="&lt;span style=&quot;font-size: 15px;&quot;&gt;df_retornos_categ : pd.DataFrame&lt;/span&gt;" style="whiteSpace=wrap;html=1;fillColor=#e1d5e7;strokeColor=#9673a6;fontStyle=0;startSize=30;horizontal=1;" vertex="1" parent="1">
          <mxGeometry x="690" y="750" width="255" height="55" as="geometry" />
        </mxCell>
        <mxCell id="VyngWISYHlR3QVI3Rs7T-50" value="python object" style="text;html=1;align=center;verticalAlign=middle;whiteSpace=wrap;rounded=0;" vertex="1" parent="1">
          <mxGeometry x="777.5" y="720" width="110" height="30" as="geometry" />
        </mxCell>
        <mxCell id="W6At6rboIIjmuKqwYmCF-1" value="&lt;p style=&quot;margin:0px;margin-top:4px;text-align:center;&quot;&gt;&lt;b&gt;&lt;font style=&quot;font-size: 17px;&quot;&gt;modules_risk.metrics.RiskMetrics&lt;/font&gt;&lt;/b&gt;&lt;/p&gt;&lt;div&gt;&lt;br&gt;&lt;/div&gt;&lt;font style=&quot;font-size: 14px;&quot;&gt;Contiene una funciÃ³n por cada mÃ©trica de riesgo.&lt;/font&gt;&lt;br&gt;&lt;br&gt;&lt;hr size=&quot;1&quot; style=&quot;border-style:solid;&quot;&gt;&lt;p style=&quot;margin:0px;margin-left:4px;&quot;&gt;&lt;font style=&quot;font-size: 15px;&quot;&gt;&lt;b&gt;&lt;u&gt;Atributos&lt;/u&gt;&lt;/b&gt;&lt;/font&gt;&lt;/p&gt;&lt;p style=&quot;margin:0px;margin-left:4px;&quot;&gt;&lt;span style=&quot;font-size: 15px;&quot;&gt;+ airflow : bool&amp;nbsp;&lt;/span&gt;&lt;/p&gt;&lt;hr size=&quot;1&quot; style=&quot;border-style:solid;&quot;&gt;&lt;p style=&quot;margin:0px;margin-left:4px;&quot;&gt;&lt;font style=&quot;font-size: 16px;&quot;&gt;&lt;b&gt;&lt;u&gt;MÃ©todos&lt;/u&gt;&lt;/b&gt;&lt;/font&gt;&lt;/p&gt;&lt;p style=&quot;margin:0px;margin-left:4px;&quot;&gt;&lt;font style=&quot;font-size: 16px;&quot;&gt;+ __post_init__() : callable&lt;br&gt;+ drawdawn() : callable&lt;/font&gt;&lt;/p&gt;&lt;p style=&quot;margin:0px;margin-left:4px;&quot;&gt;&lt;font style=&quot;font-size: 16px;&quot;&gt;+ tracking_error : callable&lt;/font&gt;&lt;/p&gt;&lt;p style=&quot;margin:0px;margin-left:4px;&quot;&gt;&lt;font style=&quot;font-size: 16px;&quot;&gt;+ information_ratio() :&amp;nbsp;&lt;/font&gt;&lt;span style=&quot;font-size: 16px; background-color: transparent; color: light-dark(rgb(0, 0, 0), rgb(255, 255, 255));&quot;&gt;callable&lt;/span&gt;&lt;/p&gt;&lt;p style=&quot;margin:0px;margin-left:4px;&quot;&gt;&lt;font style=&quot;font-size: 16px;&quot;&gt;+ ewma() :&amp;nbsp;&lt;/font&gt;&lt;span style=&quot;font-size: 16px; background-color: transparent; color: light-dark(rgb(0, 0, 0), rgb(255, 255, 255));&quot;&gt;callable&lt;/span&gt;&lt;/p&gt;&lt;p style=&quot;margin:0px;margin-left:4px;&quot;&gt;&lt;span style=&quot;font-size: 16px; background-color: transparent; color: light-dark(rgb(0, 0, 0), rgb(255, 255, 255));&quot;&gt;+ var() :&amp;nbsp;&lt;/span&gt;&lt;span style=&quot;font-size: 16px; background-color: transparent; color: light-dark(rgb(0, 0, 0), rgb(255, 255, 255));&quot;&gt;callable&lt;/span&gt;&lt;/p&gt;" style="verticalAlign=top;align=left;overflow=fill;html=1;whiteSpace=wrap;fillColor=#e1d5e7;strokeColor=#9673a6;" vertex="1" parent="1">
          <mxGeometry x="120" y="370" width="356.47" height="276" as="geometry" />
        </mxCell>
        <mxCell id="W6At6rboIIjmuKqwYmCF-4" value="python object" style="text;html=1;align=center;verticalAlign=middle;whiteSpace=wrap;rounded=0;" vertex="1" parent="1">
          <mxGeometry x="762.5" y="330" width="110" height="30" as="geometry" />
        </mxCell>
        <mxCell id="W6At6rboIIjmuKqwYmCF-5" value="python object" style="text;html=1;align=center;verticalAlign=middle;whiteSpace=wrap;rounded=0;" vertex="1" parent="1">
          <mxGeometry x="230" y="340" width="110" height="30" as="geometry" />
        </mxCell>
      </root>
    </mxGraphModel>
  </diagram>
</mxfile>
